<?xml version="1.0" standalone="no"?><!DOCTYPE svg PUBLIC "-//W3C//DTD SVG 1.1//EN" "http://www.w3.org/Graphics/SVG/1.1/DTD/svg11.dtd"><svg t="1732007653282" class="icon" viewBox="0 0 1024 1024" version="1.1" xmlns="http://www.w3.org/2000/svg" p-id="56512" xmlns:xlink="http://www.w3.org/1999/xlink" width="64" height="64"><path d="M0.2304 512.1152C0.2304 229.6576 229.1968 0.6912 511.6544 0.6912 794.112 0.6912 1023.104 229.6576 1023.104 512.1152c0 282.4576-228.9792 511.424-511.4368 511.424C229.1968 1023.5392 0.2304 794.5728 0.2304 512.128zM824.192 335.9488h-6.0544c-56.448 0-99.7248 17.4976-129.8176 52.5056-30.08 35.008-45.12 83.392-45.12 145.1776v20.096c0 42.0864 10.9312 76.1216 32.7808 102.0928 21.8624 25.984 50.368 38.9632 85.5424 38.9632 34.1888 0 61.824-11.0848 82.8672-33.28 21.056-22.1696 31.5776-51.1616 31.5776-86.976 0-34.688-8.9856-62.9888-26.9824-84.928-17.984-21.9392-42.5472-32.9088-73.6768-32.9088-29.3632 0-53.4784 9.92-72.3456 29.76 3.712-32.256 15.3984-57.1904 35.0848-74.7648 19.6736-17.5872 45.9776-26.624 78.8864-27.1104h7.2576v-48.64zM261.7472 591.5776l64.64-91.6864H292.224l-48.5376 76.3904-48.5376-76.3904H160.128l64.7424 90.7776-71.04 93.5296h34.2144l54.8096-77.312 53.9648 77.312h35.968l-71.04-92.6208z m319.744-161.024c0-30.0032-9.6768-53.7984-29.0304-71.3728C533.0944 341.5936 506.88 332.8 473.8176 332.8c-32.896 0-59.0336 8.7936-78.4 26.368-19.3536 17.5872-29.0304 41.3824-29.0304 71.3856 0 17.2672 4.3904 32.6272 13.184 46.0928 8.7936 13.4784 20.7744 24.0768 35.9296 31.8208-18.0608 8.064-32.1024 19.5968-42.0992 34.5984C363.4048 558.08 358.4 575.0144 358.4 593.8816c0 30.8096 10.5216 55.3344 31.5776 73.5616 21.056 18.2272 49.0752 27.3408 84.0832 27.3408 34.8416 0 62.7456-9.0752 83.712-27.2256 20.9792-18.1376 31.4624-42.7008 31.4624-73.6768 0-18.7136-4.9536-35.4816-14.8736-50.3296-9.92-14.848-24.0768-26.5344-42.4704-35.072 15.3216-7.7568 27.4176-18.3552 36.3008-31.8336 8.8704-13.4656 13.312-28.8256 13.312-46.08z m179.5456 73.5616c17.1008 0 30.8096 6.6944 41.1264 20.0832 10.3296 13.3888 15.488 30.72 15.488 52.0192 0 21.2992-5.0816 38.4768-15.232 51.5456-10.176 13.056-23.9616 19.584-41.3824 19.584s-31.616-7.68-42.5856-23.0912c-10.9696-15.4112-16.4608-36.1856-16.4608-62.3104v-17.9072a63.6416 63.6416 0 0 1 23.5904-29.0304 61.9008 61.9008 0 0 1 35.456-10.8928z m-238.0928-71.3856c0 16.128-4.4032 28.9536-13.184 38.4768-8.8064 9.5104-20.6976 14.272-35.6992 14.272-15.0016 0-26.8928-4.7616-35.6864-14.272-8.7936-9.5232-13.184-22.336-13.184-38.4768 0-16.2944 4.352-29.1584 13.056-38.592 8.704-9.4336 20.5696-14.1568 35.584-14.1568 14.9888 0 26.9312 4.9664 35.8016 14.8864 8.8704 9.92 13.312 22.5408 13.312 37.8624z m7.5008 158.2464c0 17.92-4.9664 31.872-14.8864 41.856-9.92 10.0096-23.7568 15.0144-41.4976 15.0144s-31.6544-5.1712-41.728-15.488c-10.0992-10.3296-15.1296-24.1152-15.1296-41.3824 0-17.5744 5.12-31.6928 15.36-42.3424 10.24-10.6496 23.9104-15.9744 41.0112-15.9744s30.848 5.376 41.2544 16.1024c10.4064 10.7264 15.616 24.7936 15.616 42.2144z" fill="#2A9DCE" p-id="56513"></path></svg>